<mxfile host="app.diagrams.net" modified="2024-04-09T22:17:59.384Z" agent="Mozilla/5.0 (Windows NT 10.0; Win64; x64) AppleWebKit/537.36 (KHTML, like Gecko) Chrome/123.0.0.0 Safari/537.36" etag="fC5SJfA9doVdl3A5W22m" version="24.2.3" type="github">
  <diagram name="Page-1" id="2YBvvXClWsGukQMizWep">
    <mxGraphModel dx="1434" dy="738" grid="1" gridSize="10" guides="1" tooltips="1" connect="1" arrows="1" fold="1" page="1" pageScale="1" pageWidth="850" pageHeight="1100" math="0" shadow="0">
      <root>
        <mxCell id="0" />
        <mxCell id="1" parent="0" />
        <mxCell id="AYLCXqUa_OQ0-cyYhLuN-21" value=":Usuario" style="shape=umlLifeline;perimeter=lifelinePerimeter;whiteSpace=wrap;html=1;container=0;dropTarget=0;collapsible=0;recursiveResize=0;outlineConnect=0;portConstraint=eastwest;newEdgeStyle={&quot;edgeStyle&quot;:&quot;elbowEdgeStyle&quot;,&quot;elbow&quot;:&quot;vertical&quot;,&quot;curved&quot;:0,&quot;rounded&quot;:0};" vertex="1" parent="1">
          <mxGeometry x="40" y="50" width="100" height="520" as="geometry" />
        </mxCell>
        <mxCell id="AYLCXqUa_OQ0-cyYhLuN-22" value="" style="html=1;points=[];perimeter=orthogonalPerimeter;outlineConnect=0;targetShapes=umlLifeline;portConstraint=eastwest;newEdgeStyle={&quot;edgeStyle&quot;:&quot;elbowEdgeStyle&quot;,&quot;elbow&quot;:&quot;vertical&quot;,&quot;curved&quot;:0,&quot;rounded&quot;:0};" vertex="1" parent="AYLCXqUa_OQ0-cyYhLuN-21">
          <mxGeometry x="45" y="70" width="10" height="390" as="geometry" />
        </mxCell>
        <mxCell id="AYLCXqUa_OQ0-cyYhLuN-23" value="" style="html=1;verticalAlign=bottom;startArrow=oval;endArrow=block;startSize=8;edgeStyle=elbowEdgeStyle;elbow=vertical;curved=0;rounded=0;" edge="1" parent="AYLCXqUa_OQ0-cyYhLuN-21" target="AYLCXqUa_OQ0-cyYhLuN-22">
          <mxGeometry relative="1" as="geometry">
            <mxPoint x="-15" y="70" as="sourcePoint" />
          </mxGeometry>
        </mxCell>
        <mxCell id="AYLCXqUa_OQ0-cyYhLuN-24" value="" style="html=1;points=[];perimeter=orthogonalPerimeter;outlineConnect=0;targetShapes=umlLifeline;portConstraint=eastwest;newEdgeStyle={&quot;edgeStyle&quot;:&quot;elbowEdgeStyle&quot;,&quot;elbow&quot;:&quot;vertical&quot;,&quot;curved&quot;:0,&quot;rounded&quot;:0};" vertex="1" parent="AYLCXqUa_OQ0-cyYhLuN-21">
          <mxGeometry x="55" y="120" width="10" height="80" as="geometry" />
        </mxCell>
        <mxCell id="AYLCXqUa_OQ0-cyYhLuN-25" value="" style="html=1;points=[];perimeter=orthogonalPerimeter;outlineConnect=0;targetShapes=umlLifeline;portConstraint=eastwest;newEdgeStyle={&quot;edgeStyle&quot;:&quot;elbowEdgeStyle&quot;,&quot;elbow&quot;:&quot;vertical&quot;,&quot;curved&quot;:0,&quot;rounded&quot;:0};" vertex="1" parent="AYLCXqUa_OQ0-cyYhLuN-21">
          <mxGeometry x="55" y="310" width="10" height="80" as="geometry" />
        </mxCell>
        <mxCell id="AYLCXqUa_OQ0-cyYhLuN-26" value=":Aplicación" style="shape=umlLifeline;perimeter=lifelinePerimeter;whiteSpace=wrap;html=1;container=0;dropTarget=0;collapsible=0;recursiveResize=0;outlineConnect=0;portConstraint=eastwest;newEdgeStyle={&quot;edgeStyle&quot;:&quot;elbowEdgeStyle&quot;,&quot;elbow&quot;:&quot;vertical&quot;,&quot;curved&quot;:0,&quot;rounded&quot;:0};" vertex="1" parent="1">
          <mxGeometry x="410" y="50" width="100" height="520" as="geometry" />
        </mxCell>
        <mxCell id="AYLCXqUa_OQ0-cyYhLuN-27" value="" style="html=1;points=[];perimeter=orthogonalPerimeter;outlineConnect=0;targetShapes=umlLifeline;portConstraint=eastwest;newEdgeStyle={&quot;edgeStyle&quot;:&quot;elbowEdgeStyle&quot;,&quot;elbow&quot;:&quot;vertical&quot;,&quot;curved&quot;:0,&quot;rounded&quot;:0};" vertex="1" parent="AYLCXqUa_OQ0-cyYhLuN-26">
          <mxGeometry x="45" y="80" width="10" height="380" as="geometry" />
        </mxCell>
        <mxCell id="AYLCXqUa_OQ0-cyYhLuN-28" value="solicitar_busqueda ()" style="html=1;verticalAlign=bottom;endArrow=block;edgeStyle=elbowEdgeStyle;elbow=vertical;curved=0;rounded=0;" edge="1" parent="1" source="AYLCXqUa_OQ0-cyYhLuN-22" target="AYLCXqUa_OQ0-cyYhLuN-27">
          <mxGeometry relative="1" as="geometry">
            <mxPoint x="205" y="140" as="sourcePoint" />
            <Array as="points">
              <mxPoint x="190" y="130" />
            </Array>
          </mxGeometry>
        </mxCell>
        <mxCell id="AYLCXqUa_OQ0-cyYhLuN-29" value="mostrar_resultados_busqueda()" style="html=1;verticalAlign=bottom;endArrow=open;dashed=1;endSize=8;edgeStyle=elbowEdgeStyle;elbow=vertical;curved=0;rounded=0;" edge="1" parent="1" source="AYLCXqUa_OQ0-cyYhLuN-27" target="AYLCXqUa_OQ0-cyYhLuN-22">
          <mxGeometry relative="1" as="geometry">
            <mxPoint x="205" y="215" as="targetPoint" />
            <Array as="points">
              <mxPoint x="220" y="330" />
              <mxPoint x="200" y="290" />
            </Array>
          </mxGeometry>
        </mxCell>
        <mxCell id="AYLCXqUa_OQ0-cyYhLuN-30" value="mostrar_formulario_busqueda ()" style="html=1;verticalAlign=bottom;endArrow=block;edgeStyle=elbowEdgeStyle;elbow=vertical;curved=0;rounded=0;dashed=1;" edge="1" parent="1" source="AYLCXqUa_OQ0-cyYhLuN-27" target="AYLCXqUa_OQ0-cyYhLuN-24">
          <mxGeometry relative="1" as="geometry">
            <mxPoint x="185" y="170" as="sourcePoint" />
            <Array as="points">
              <mxPoint x="200" y="170" />
            </Array>
          </mxGeometry>
        </mxCell>
        <mxCell id="AYLCXqUa_OQ0-cyYhLuN-31" value="enviar_formulario (nombre_usuario_buscado)" style="html=1;verticalAlign=bottom;endArrow=open;endSize=8;edgeStyle=elbowEdgeStyle;elbow=vertical;curved=0;rounded=0;" edge="1" parent="1" source="AYLCXqUa_OQ0-cyYhLuN-24" target="AYLCXqUa_OQ0-cyYhLuN-27">
          <mxGeometry x="0.0015" relative="1" as="geometry">
            <mxPoint x="185" y="245" as="targetPoint" />
            <Array as="points">
              <mxPoint x="190" y="240" />
            </Array>
            <mxPoint as="offset" />
          </mxGeometry>
        </mxCell>
        <mxCell id="AYLCXqUa_OQ0-cyYhLuN-32" value=":Base_de_datos" style="shape=umlLifeline;perimeter=lifelinePerimeter;whiteSpace=wrap;html=1;container=0;dropTarget=0;collapsible=0;recursiveResize=0;outlineConnect=0;portConstraint=eastwest;newEdgeStyle={&quot;edgeStyle&quot;:&quot;elbowEdgeStyle&quot;,&quot;elbow&quot;:&quot;vertical&quot;,&quot;curved&quot;:0,&quot;rounded&quot;:0};" vertex="1" parent="1">
          <mxGeometry x="790" y="50" width="100" height="520" as="geometry" />
        </mxCell>
        <mxCell id="AYLCXqUa_OQ0-cyYhLuN-33" value="" style="html=1;points=[];perimeter=orthogonalPerimeter;outlineConnect=0;targetShapes=umlLifeline;portConstraint=eastwest;newEdgeStyle={&quot;edgeStyle&quot;:&quot;elbowEdgeStyle&quot;,&quot;elbow&quot;:&quot;vertical&quot;,&quot;curved&quot;:0,&quot;rounded&quot;:0};" vertex="1" parent="AYLCXqUa_OQ0-cyYhLuN-32">
          <mxGeometry x="45" y="80" width="10" height="380" as="geometry" />
        </mxCell>
        <mxCell id="AYLCXqUa_OQ0-cyYhLuN-34" value="buscar_usuario (nombre_usuario_buscado)" style="html=1;verticalAlign=bottom;endArrow=block;edgeStyle=elbowEdgeStyle;elbow=vertical;curved=0;rounded=0;" edge="1" parent="1" source="AYLCXqUa_OQ0-cyYhLuN-27" target="AYLCXqUa_OQ0-cyYhLuN-33">
          <mxGeometry relative="1" as="geometry">
            <mxPoint x="500" y="195" as="sourcePoint" />
            <Array as="points">
              <mxPoint x="550" y="270" />
              <mxPoint x="615" y="195" />
              <mxPoint x="550" y="205" />
            </Array>
            <mxPoint x="720" y="195" as="targetPoint" />
          </mxGeometry>
        </mxCell>
        <mxCell id="AYLCXqUa_OQ0-cyYhLuN-35" value="retornar_resultados_busqueda ()" style="html=1;verticalAlign=bottom;endArrow=open;dashed=1;endSize=8;edgeStyle=elbowEdgeStyle;elbow=vertical;curved=0;rounded=0;" edge="1" parent="1" source="AYLCXqUa_OQ0-cyYhLuN-33" target="AYLCXqUa_OQ0-cyYhLuN-27">
          <mxGeometry relative="1" as="geometry">
            <mxPoint x="470" y="330" as="targetPoint" />
            <Array as="points">
              <mxPoint x="575" y="330" />
            </Array>
            <mxPoint x="830" y="330" as="sourcePoint" />
          </mxGeometry>
        </mxCell>
        <mxCell id="AYLCXqUa_OQ0-cyYhLuN-37" value="seleccionar_usuario (nombre_usuario_seleccionado)" style="html=1;verticalAlign=bottom;endArrow=block;edgeStyle=elbowEdgeStyle;elbow=vertical;curved=0;rounded=0;" edge="1" parent="1" target="AYLCXqUa_OQ0-cyYhLuN-27">
          <mxGeometry relative="1" as="geometry">
            <mxPoint x="105" y="360" as="sourcePoint" />
            <Array as="points">
              <mxPoint x="200" y="360" />
            </Array>
            <mxPoint x="430" y="360" as="targetPoint" />
          </mxGeometry>
        </mxCell>
        <mxCell id="AYLCXqUa_OQ0-cyYhLuN-38" value="agregar_contacto (nombre_usuario, nombre_usuario_seleccionado)" style="html=1;verticalAlign=bottom;endArrow=block;edgeStyle=elbowEdgeStyle;elbow=vertical;curved=0;rounded=0;" edge="1" parent="1" source="AYLCXqUa_OQ0-cyYhLuN-27" target="AYLCXqUa_OQ0-cyYhLuN-33">
          <mxGeometry relative="1" as="geometry">
            <mxPoint x="470" y="390" as="sourcePoint" />
            <Array as="points">
              <mxPoint x="620" y="400" />
              <mxPoint x="500" y="390" />
            </Array>
            <mxPoint x="840" y="390" as="targetPoint" />
          </mxGeometry>
        </mxCell>
        <mxCell id="AYLCXqUa_OQ0-cyYhLuN-39" value="confirmar_agregación_contacto ()" style="html=1;verticalAlign=bottom;endArrow=open;dashed=1;endSize=8;edgeStyle=elbowEdgeStyle;elbow=vertical;curved=0;rounded=0;" edge="1" parent="1" source="AYLCXqUa_OQ0-cyYhLuN-33" target="AYLCXqUa_OQ0-cyYhLuN-27">
          <mxGeometry relative="1" as="geometry">
            <mxPoint x="460" y="460" as="targetPoint" />
            <Array as="points">
              <mxPoint x="570" y="460" />
            </Array>
            <mxPoint x="830" y="460" as="sourcePoint" />
          </mxGeometry>
        </mxCell>
        <mxCell id="AYLCXqUa_OQ0-cyYhLuN-40" value="confirmar_agregación_exitosa ()" style="html=1;verticalAlign=bottom;endArrow=open;dashed=1;endSize=8;edgeStyle=elbowEdgeStyle;elbow=vertical;curved=0;rounded=0;" edge="1" parent="1" source="AYLCXqUa_OQ0-cyYhLuN-27" target="AYLCXqUa_OQ0-cyYhLuN-22">
          <mxGeometry relative="1" as="geometry">
            <mxPoint x="90" y="460" as="targetPoint" />
            <Array as="points">
              <mxPoint x="195" y="460" />
            </Array>
            <mxPoint x="460" y="460" as="sourcePoint" />
          </mxGeometry>
        </mxCell>
      </root>
    </mxGraphModel>
  </diagram>
</mxfile>
